<svg width="20" height="17" viewBox="0 0 20 17" fill="none" xmlns="http://www.w3.org/2000/svg">
<path d="M9.53249 16.6538L9.19604 16.3734C1.96257 10.4857 0 8.41102 0 5.04661C0 2.24294 2.24294 0 5.04661 0C7.34562 0 8.63531 1.28969 9.53249 2.29901C10.4297 1.28969 11.7193 0 14.0184 0C16.822 0 19.065 2.24294 19.065 5.04661C19.065 8.41102 17.1024 10.4857 9.86893 16.3734L9.53249 16.6538ZM5.04661 1.12147C2.85975 1.12147 1.12147 2.85975 1.12147 5.04661C1.12147 7.90635 2.91582 9.81285 9.53249 15.1959C16.1492 9.81285 17.9435 7.90635 17.9435 5.04661C17.9435 2.85975 16.2052 1.12147 14.0184 1.12147C12.0558 1.12147 10.9904 2.29901 10.1493 3.25226L9.53249 3.98121L8.91568 3.25226C8.07458 2.29901 7.00918 1.12147 5.04661 1.12147Z" fill="white"/>
</svg>
